<svg width="1669" height="1669" xmlns="http://www.w3.org/2000/svg">
 <!-- Created with Method Draw - http://github.com/duopixel/Method-Draw/ -->

 <g>
  <title>background</title>
  <rect x="-1" y="-1" width="9819.5159" height="9819.5159" id="canvas_background" fill="none"/>
 </g>
 <g>
  <title>Layer 1</title>
  <path d="m833.33327,0a833.33327,833.33327 0 0 0 -833.33327,833.33327a833.33327,833.33327 0 0 0 833.33327,833.33327a833.33327,833.33327 0 0 0 833.33327,-833.33327a833.33327,833.33327 0 0 0 -833.33327,-833.33327zm-178.74999,494.44441a385.41664,385.41664 0 0 1 137.84721,26.38889l0,82.01388a312.49998,312.49998 0 0 0 -156.24999,-39.30555a238.81943,238.81943 0 0 0 -182.29165,75.48611a284.65276,284.65276 0 0 0 -70.27777,201.80554a270.83331,270.83331 0 0 0 65.62499,191.24999a223.40276,223.40276 0 0 0 172.3611,71.04166a323.40275,323.40275 0 0 0 171.1111,-44.02777l-0.27778,74.99999a384.93053,384.93053 0 0 1 -182.29165,38.54166a292.43053,292.43053 0 0 1 -224.16665,-90.06944a332.8472,332.8472 0 0 1 -84.16666,-236.73609a348.68053,348.68053 0 0 1 94.79166,-254.37498a321.5972,321.5972 0 0 1 241.18054,-96.66666a385.41664,385.41664 0 0 1 8.33333,-0.27778a385.41664,385.41664 0 0 1 8.47222,0l0,-0.06944l0,-0.00001zm407.15275,10.76389l58.05555,0l-38.54166,184.16665l115.34721,0l39.375,-184.16665l56.25,0l-38.54166,184.16665l120.27777,-0.27778l-10.41667,48.40277l-119.79166,0l-28.61111,137.49999l128.6111,0l-12.22222,48.47222l-126.1111,0l-40.27777,182.29165l-57.63888,0l39.375,-182.29165l-114.58332,0l-38.54166,182.29165l-56.25,0l38.54166,-182.29165l-120.83332,0l9.09722,-48.47222l121.38888,0l27.84722,-137.22221l-126.80555,0l9.58333,-48.40277l126.80555,0l38.61111,-184.16665l-0.00002,0zm9.86111,232.29165l-29.93055,137.49999l116.18055,0l29.375,-137.49999l-115.62499,0l-0.00001,0z" id="svg_4" fill="#7719aa"/>
 </g>
</svg>