<svg width="1886" height="1928" xmlns="http://www.w3.org/2000/svg">
 <!-- Created with Method Draw - http://github.com/duopixel/Method-Draw/ -->

 <g>
  <title>background</title>
  <rect x="-1" y="-1" width="47194.65029" height="48245.60008" id="canvas_background" fill="#fff"/>
 </g>
 <g>
  <title>Layer 1</title>
  <g id="svg_5" stroke="null">
   <path d="m1884.64258,969.72093c0,-520.05856 -421.5832,-941.64647 -941.63863,-941.64647c-520.05856,0 -941.64647,421.58791 -941.64647,941.64647c0,470.00316 344.34592,859.56013 794.51102,930.20461l0,-658.00913l-239.08785,0l0,-272.19548l239.08785,0l0,-207.45792c0,-235.9998 140.58267,-366.35856 355.67085,-366.35856c103.02385,0 210.78768,18.39095 210.78768,18.39095l0,231.73304l-118.73483,0c-116.97696,0 -153.46065,72.58598 -153.46065,147.05305l0,176.63945l261.1617,0l-41.74946,272.19548l-219.41224,0l0,658.00913c450.17217,-70.64448 794.51102,-460.20145 794.51102,-930.20461l0.00001,-0.00001z" id="svg_4" fill="#3b5998" stroke="null"/>
  </g>
 </g>
</svg>