<svg width="2103" height="2203" xmlns="http://www.w3.org/2000/svg">
 <!-- Created with Method Draw - http://github.com/duopixel/Method-Draw/ -->

 <g>
  <title>background</title>
  <rect x="-1" y="-1" width="8413.88065" height="8813.87498" id="canvas_background" fill="#fff"/>
 </g>
 <g>
  <title>Layer 1</title>
  <g id="svg_5" stroke="null">
   <path d="m2052.61962,1008.73531l-908.59331,-908.5066c-52.37049,-52.28378 -137.16906,-52.28378 -189.71296,0l-188.23896,188.58578l239.30886,239.30886c55.92544,-18.64181 119.56772,-6.06943 163.78784,38.23739c44.74035,44.65365 57.05262,109.07628 37.97728,164.74161l230.46484,230.63825c55.92544,-19.33546 120.26137,-6.76308 164.74161,37.71716c62.5151,62.4284 62.5151,163.35431 0,225.78271c-62.34169,62.34169 -163.09419,62.34169 -225.43588,0c-46.73459,-46.908 -58.43992,-115.92607 -35.02927,-173.06539l-215.8115,-214.68432l0,565.75735c15.26028,7.45673 29.65349,17.60134 42.31258,30.17373c61.82146,62.5151 61.82146,163.2676 0,225.43588c-62.34169,62.5151 -163.78784,62.5151 -226.21624,0c-62.34169,-62.34169 -62.34169,-162.92078 0,-225.26247c15.78051,-15.6071 33.55526,-27.39913 52.4572,-35.20268l0,-571.30655c-18.81523,-7.89026 -36.76339,-19.24876 -52.02366,-34.76915c-47.25483,-47.25483 -58.61333,-116.3596 -34.33562,-174.19257l-235.14697,-236.27414l-623.07009,622.63656c-52.02366,52.4572 -52.02366,137.34248 0,189.79967l908.68001,908.41989c52.37049,52.37049 137.16906,52.37049 189.53955,0l904.34471,-904.34471c52.4572,-52.28378 52.4572,-137.16906 0,-189.62626" id="svg_4" stroke="null" fill="#f34f29"/>
  </g>
 </g>
</svg>