<svg width="2103" height="2183" xmlns="http://www.w3.org/2000/svg">
 <!-- Created with Method Draw - http://github.com/duopixel/Method-Draw/ -->

 <g>
  <title>background</title>
  <rect x="-1" y="-1" width="2105" height="2185" id="canvas_background" fill="#fff"/>
 </g>
 <g>
  <title>Layer 1</title>
  <g id="svg_5" stroke="null">
   <path d="m1051.50001,69.12457c-579.20413,0 -1048.33327,469.39122 -1048.33327,1048.33327c0,463.27594 300.34748,856.13883 716.79787,994.60619c52.41666,9.8718 71.63611,-22.53917 71.63611,-50.40736c0,-24.89792 -0.87361,-90.85555 -1.31042,-178.21666c-291.61137,63.24944 -353.11359,-140.65138 -353.11359,-140.65138c-47.69916,-120.99513 -116.62708,-153.31874 -116.62708,-153.31874c-94.96152,-64.99666 7.33833,-63.68625 7.33833,-63.68625c105.27013,7.33833 160.56971,107.97833 160.56971,107.97833c93.47638,160.30763 245.39735,114.00624 305.32706,87.18638c9.435,-67.79222 36.42958,-114.00624 66.39444,-140.21457c-232.81735,-26.20833 -477.5158,-116.36499 -477.5158,-518.05136c0,-114.44305 40.62291,-207.91943 107.89097,-281.30276c-11.79375,-26.47041 -47.175,-133.05096 9.17292,-277.45887c0,0 87.79791,-28.13028 288.29165,107.45416c83.86666,-23.32542 172.97499,-34.85708 262.08332,-35.38125c89.10833,0.52417 178.21666,12.05583 262.08332,35.38125c199.18332,-135.58444 286.98123,-107.45416 286.98123,-107.45416c56.34791,144.40791 20.96667,250.98846 10.48333,277.45887c66.83125,73.38333 107.45416,166.85971 107.45416,281.30276c0,402.7347 -245.0479,491.40622 -478.30205,517.17774c36.69166,31.45 70.7625,95.74777 70.7625,193.94165c0,140.30194 -1.31042,252.99776 -1.31042,287.06859c0,27.51875 18.34583,60.27916 72.07291,49.79583c419.42067,-137.50638 719.50607,-530.63136 719.50607,-993.20841c0,-578.94205 -469.39122,-1048.33327 -1048.33327,-1048.33327" id="svg_4" stroke="null" fill="#000000"/>
  </g>
 </g>
</svg>