<svg width="1667" height="1667" xmlns="http://www.w3.org/2000/svg">
 <!-- Created with Method Draw - http://github.com/duopixel/Method-Draw/ -->

 <g>
  <title>background</title>
  <rect x="-1" y="-1" width="7579.27271" height="7579.27271" id="canvas_background" fill="#fff"/>
 </g>
 <g>
  <title>Layer 1</title>
  <g id="svg_5">
   <path d="m833.33327,0c-226.38887,0 -254.65276,1.04167 -343.54164,5c-88.74999,4.16667 -149.16666,18.125 -202.29165,38.75c-54.79166,21.25 -101.31944,49.79166 -147.63888,96.1111s-74.93055,92.77777 -96.1111,147.63888c-20.625,53.125 -34.65278,113.54166 -38.75,202.29165c-4.16667,88.88888 -5,117.15277 -5,343.54164s1.04167,254.65276 5,343.54164c4.16667,88.68055 18.125,149.16666 38.75,202.29165c21.25,54.72222 49.79166,101.31944 96.1111,147.63888c46.31944,46.25 92.77777,74.93055 147.63888,96.1111c53.19444,20.55555 113.6111,34.65278 202.29165,38.75c88.88888,4.16667 117.15277,5 343.54164,5s254.65276,-1.04167 343.54164,-5c88.68055,-4.16667 149.16666,-18.19444 202.29165,-38.75c54.72222,-21.25 101.31944,-49.86111 147.63888,-96.1111c46.25,-46.31944 74.93055,-92.70833 96.1111,-147.63888c20.55555,-53.125 34.65278,-113.6111 38.75,-202.29165c4.16667,-88.88888 5,-117.15277 5,-343.54164s-1.04167,-254.65276 -5,-343.54164c-4.16667,-88.68055 -18.19444,-149.2361 -38.75,-202.29165c-21.25,-54.79166 -49.86111,-101.31944 -96.1111,-147.63888c-46.31944,-46.31944 -92.70833,-74.93055 -147.63888,-96.1111c-53.125,-20.625 -113.6111,-34.65278 -202.29165,-38.75c-88.88888,-4.16667 -117.15277,-5 -343.54164,-5zm0,149.99999c222.43054,0 248.95831,1.11111 336.80553,4.93056c81.24999,3.81944 125.34721,17.29167 154.65277,28.81944c39.02777,15.06944 66.66666,33.125 95.97221,62.22222c29.09722,29.16666 47.15277,56.875 62.22222,95.90277c11.38889,29.30555 25,73.40277 28.68055,154.65277c3.95833,87.91666 4.86111,114.30555 4.86111,336.80553s-1.04167,248.95831 -5.13889,336.80553c-4.23611,81.24999 -17.77778,125.34721 -29.23611,154.65277c-15.55555,39.02777 -33.26389,66.66666 -62.43055,95.97221c-29.09722,29.09722 -57.22222,47.15277 -95.83333,62.22222c-29.16666,11.38889 -73.95833,25 -155.20832,28.68055c-88.47222,3.95833 -114.51388,4.86111 -337.43053,4.86111c-222.98609,0 -249.02776,-1.04167 -337.43053,-5.13889c-81.31944,-4.23611 -126.1111,-17.77778 -155.27777,-29.23611c-39.51389,-15.55555 -66.66666,-33.26389 -95.76388,-62.43055c-29.23611,-29.09722 -47.91666,-57.22222 -62.5,-95.83333c-11.45833,-29.16666 -24.93055,-73.95833 -29.16666,-155.20832c-3.125,-87.49999 -4.23611,-114.51388 -4.23611,-336.38886c0,-221.94443 1.11111,-249.02776 4.23611,-337.56942c4.23611,-81.24999 17.70833,-125.97221 29.16666,-155.13888c14.58333,-39.58333 33.26389,-66.66666 62.5,-95.90277c29.09722,-29.09722 56.25,-47.84722 95.76388,-62.36111c29.16666,-11.52778 72.98611,-25.06944 154.2361,-29.23611c88.54166,-3.125 114.58332,-4.16667 337.43053,-4.16667l3.125,2.08333l0.00001,0.00001zm0,255.41665c-236.45832,0 -427.91663,191.66665 -427.91663,427.91663c0,236.45832 191.66665,427.91663 427.91663,427.91663c236.45832,0 427.91663,-191.66665 427.91663,-427.91663c0,-236.45832 -191.66665,-427.91663 -427.91663,-427.91663zm0,705.69439c-153.47221,0 -277.77776,-124.30555 -277.77776,-277.77776s124.30555,-277.77776 277.77776,-277.77776s277.77776,124.30555 277.77776,277.77776s-124.30555,277.77776 -277.77776,277.77776zm544.86107,-722.56939c0,55.20833 -44.86111,99.99999 -99.99999,99.99999c-55.20833,0 -99.99999,-44.86111 -99.99999,-99.99999c0,-55.13888 44.86111,-99.93055 99.99999,-99.93055c55.06944,-0.06944 99.99999,44.79166 99.99999,99.93055z" id="svg_4" fill="#dd2a7b"/>
  </g>
 </g>
</svg>