<svg width="1264" height="1667" xmlns="http://www.w3.org/2000/svg">
 <!-- Created with Method Draw - http://github.com/duopixel/Method-Draw/ -->

 <g>
  <title>background</title>
  <rect x="-1" y="-1" width="11495.36479" height="15159.78411" id="canvas_background" fill="#fff"/>
 </g>
 <g>
  <title>Layer 1</title>
  <g id="svg_5">
   <path d="m295.69442,1541.73605a123.88888,124.93055 0 0 1 -123.81943,124.93055a123.88888,124.93055 0 0 1 -123.88888,-124.93055a123.88888,124.93055 0 0 1 123.88888,-124.93055a123.88888,124.93055 0 0 1 123.81943,124.93055zm932.2916,-1442.63878a98.26388,99.09721 0 0 1 -98.26388,99.16666a98.26388,99.09721 0 0 1 -98.33333,-99.16666a98.26388,99.09721 0 0 1 98.33333,-99.09721a98.26388,99.09721 0 0 1 98.26388,99.09721zm-1082.63881,132.56943a72.70833,73.33333 0 0 1 -72.63888,73.19444a72.70833,73.33333 0 0 1 -72.70833,-73.26388a72.70833,73.33333 0 0 1 72.70833,-73.26388a72.70833,73.33333 0 0 1 72.63888,73.33333l0,-0.00001zm509.44441,105.34721c261.73609,0 490.27774,95.83333 608.88884,237.77776a650.20828,650.20828 0 0 0 -235.62498,-315.76386a641.52773,641.52773 0 0 0 -373.40275,-119.99999a641.52773,641.52773 0 0 0 -373.3333,119.99999a650.20828,650.20828 0 0 0 -235.69443,315.76386c118.95832,-141.66666 347.49997,-237.77776 609.16662,-237.77776zm0.06944,923.26382c-261.66665,0 -490.27774,-95.90277 -608.88884,-237.8472a650.20828,650.20828 0 0 0 235.69443,315.76386a641.52773,641.52773 0 0 0 373.26386,120.13888a641.52773,641.52773 0 0 0 373.40275,-120.06944a650.20828,650.20828 0 0 0 235.62498,-315.76386c-118.88888,141.94443 -347.43053,237.8472 -609.16662,237.8472l0.06944,-0.06944z" id="svg_4" fill="#ee1c25"/>
  </g>
 </g>
</svg>