<svg width="1667" height="1667" xmlns="http://www.w3.org/2000/svg">
 <!-- Created with Method Draw - http://github.com/duopixel/Method-Draw/ -->

 <g>
  <title>background</title>
  <rect x="-1" y="-1" width="6669.9423" height="6669.9423" id="canvas_background" fill="#fff"/>
 </g>
 <g>
  <title>Layer 1</title>
  <g id="svg_5">
   <path d="m1419.93045,1420.27767l-246.80554,0l0,-386.73608c0,-92.22222 -1.875,-210.90276 -128.6111,-210.90276c-128.68055,0 -148.33332,100.34721 -148.33332,204.09721l0,393.54164l-246.80554,0l0,-795.27772l237.08332,0l0,108.40277l3.19444,0c33.125,-62.5 113.68055,-128.47221 234.02776,-128.47221c250.06943,0 296.31942,164.58332 296.31942,378.81942l0,436.52774l-0.06944,0l0,-0.00001zm-1049.30548,-904.09715c-79.44444,0 -143.26388,-64.30555 -143.26388,-143.40277c0,-79.02777 63.88888,-143.26388 143.26388,-143.26388c79.16666,0 143.33332,64.23611 143.33332,143.26388c0,79.09722 -64.23611,143.40277 -143.33332,143.40277zm123.74999,904.09715l-247.49998,0l0,-795.27772l247.49998,0l0,795.27772zm1049.0277,-1420.27767l-1420.41656,0c-67.98611,0 -122.9861,53.75 -122.9861,120.06944l0,1426.52767c0,66.38888 55,120.06944 122.9861,120.06944l1420.20822,0c67.91666,0 123.47221,-53.68055 123.47221,-120.06944l0,-1426.52767c0,-66.31944 -55.55555,-120.06944 -123.47221,-120.06944l0.20833,0l0.00001,0z" id="svg_4" fill="#0e76a8"/>
  </g>
 </g>
</svg>