<svg width="1675" height="1667" xmlns="http://www.w3.org/2000/svg">
 <!-- Created with Method Draw - http://github.com/duopixel/Method-Draw/ -->

 <g>
  <title>background</title>
  <rect x="-1" y="-1" width="5777.86216" height="5750.27595" id="canvas_background" fill="#fff"/>
 </g>
 <g>
  <title>Layer 1</title>
  <g id="svg_5">
   <path d="m993.74992,12.5l62.5,13.88889l50.69444,18.05555l40.97222,20.83333l31.25,22.22222l23.61111,23.61111l17.36111,23.61111l11.11111,22.91666l6.94444,20.83333l2.77778,18.05555l1.38889,13.88889l-0.69444,9.02778l0,370.83331l-3.47222,43.75l-9.02778,38.19444l-14.58333,31.94444l-18.05555,26.38889l-20.83333,21.52778l-22.91666,17.36111l-24.30555,13.19444l-24.30555,9.72222l-22.91666,6.94444l-20.83333,4.86111l-18.05555,2.77778l-14.58333,1.38889l-414.5833,0l-47.91666,3.47222l-40.97222,9.72222l-34.72222,15.27778l-28.47222,18.75l-22.91666,22.22222l-18.75,24.30555l-13.88889,25l-10.41667,25.69444l-6.94444,24.30555l-4.86111,22.22222l-2.77778,18.75l-1.38889,14.58333l0,212.49998l-154.8611,0l-14.58333,-2.08333l-19.44444,-4.86111l-22.22222,-8.33333l-24.30555,-12.5l-25,-18.05555l-25,-25l-24.30555,-31.94444l-22.22222,-40.97222l-19.44444,-50.69444l-14.58333,-61.11111l-9.72222,-72.91666l-3.47222,-85.41666l4.16667,-84.72222l11.11111,-72.22222l16.66667,-60.41666l22.22222,-49.30555l25,-39.58333l27.77778,-30.55555l29.16666,-22.91666l29.16666,-16.66667l27.77778,-11.11111l25,-6.94444l22.22222,-3.47222l16.66667,-0.69444l11.11111,0l4.16667,0.69444l566.66662,0l0,-57.63888l-405.55552,0l-0.69444,-190.97221l-1.38889,-25.69444l3.47222,-23.61111l7.63889,-21.52778l11.80555,-19.44444l17.36111,-18.05555l21.52778,-15.97222l26.38889,-13.88889l30.55555,-12.5l35.41666,-10.41667l40.27777,-8.33333l44.44444,-6.94444l49.30555,-4.16667l53.47222,-2.77778l58.33333,-1.38889l88.19444,3.47222l74.30555,9.02778l-0.00008,0zm-437.49997,137.49999l-15.97222,22.91666l-5.55556,28.47222l5.55556,28.47222l15.97222,23.61111l22.91666,15.27778l28.47222,6.25l28.47222,-6.25l22.91666,-15.27778l15.97222,-23.61111l5.55556,-28.47222l-5.55556,-28.47222l-15.97222,-22.91666l-22.91666,-15.27778l-28.47222,-6.25l-28.47222,6.25l-22.91666,15.27778zm909.02771,274.30553l19.44444,4.16667l22.22222,8.33333l24.30555,12.5l25,18.75l25,24.30555l24.30555,32.63889l22.22222,40.97222l19.44444,50.69444l14.58333,61.11111l9.72222,72.22222l3.47222,85.41666l-4.16667,85.41666l-11.11111,72.22222l-16.66667,59.72222l-22.22222,49.30555l-25,39.58333l-27.77778,31.25l-29.16666,22.91666l-29.16666,16.66667l-27.77778,11.11111l-25,6.25l-22.22222,3.47222l-16.66667,1.38889l-11.11111,-0.69444l-570.83329,0l0,56.94444l405.55552,0l0.69444,191.66665l1.38889,25l-3.47222,23.61111l-7.63889,21.52778l-11.80555,20.13889l-17.36111,17.36111l-21.52778,16.66667l-26.38889,13.88889l-30.55555,11.80555l-35.41666,10.41667l-40.27777,9.02778l-44.44444,6.25l-49.30555,4.86111l-53.47222,2.77778l-58.33333,0.69444l-88.19444,-2.77778l-74.30555,-9.72222l-62.5,-13.88889l-50.69444,-17.36111l-40.97222,-20.83333l-31.25,-22.91666l-23.61111,-23.61111l-17.36111,-23.61111l-11.11111,-22.91666l-6.94444,-20.83333l-2.77778,-17.36111l-1.38889,-13.88889l0.69444,-9.02778l0,-370.83331l3.47222,-44.44444l9.02778,-37.5l14.58333,-31.94444l18.05555,-26.38889l20.83333,-22.22222l22.91666,-16.66667l24.30555,-13.88889l24.30555,-9.72222l22.91666,-6.94444l20.83333,-4.16667l18.05555,-2.77778l14.58333,-1.38889l9.02778,-0.69444l405.55552,0l47.91666,-3.47222l40.97222,-9.72222l34.72222,-14.58333l28.47222,-19.44444l22.91666,-22.22222l18.75,-24.30555l13.88889,-25l10.41667,-25l6.94444,-24.30555l4.86111,-22.22222l2.77778,-19.44444l1.38889,-14.58333l0,-212.49998l145.13888,0l9.72222,0.69444l14.58333,2.08333l0.00008,-0.00004zm-449.30552,989.58326l-15.97222,22.91666l-5.55556,28.47222l5.55556,28.47222l15.97222,22.91666l22.91666,15.97222l28.47222,5.55556l28.47222,-5.55556l22.91666,-15.97222l15.97222,-22.91666l5.55556,-28.47222l-5.55556,-28.47222l-15.97222,-22.91666l-22.91666,-15.97222l-28.47222,-5.55556l-28.47222,5.55556l-22.91666,15.97222z" id="svg_4" fill="#306998"/>
  </g>
 </g>
</svg>