<svg width="1381" height="1661" xmlns="http://www.w3.org/2000/svg">
 <!-- Created with Method Draw - http://github.com/duopixel/Method-Draw/ -->

 <g>
  <title>background</title>
  <rect x="-1" y="-1" width="4605.39928" height="5538.74599" id="canvas_background" fill="#fff"/>
 </g>
 <g>
  <title>Layer 1</title>
  <g id="svg_5">
   <path d="m690.63407,0.00001l-488.19441,488.19441a682.77773,682.77773 0 0 0 0,970.48604a682.84717,682.84717 0 0 0 970.55548,0c275.69442,-269.93053 275.83331,-706.31939 5.83333,-970.55548l-120.69444,120.62499c201.04165,201.04165 201.04165,528.33329 0,729.37494c-200.97221,200.97221 -528.33329,200.97221 -729.37494,0c-200.97221,-201.04165 -200.97221,-528.40274 0,-729.37494l321.66664,-321.5972l40.27777,-46.04166l-0.06944,-241.11109l0.00001,-0.00001zm246.94443,269.86109a91.87499,91.87499 0 0 0 -91.87499,91.87499a91.87499,91.87499 0 0 0 91.87499,91.87499a91.87499,91.87499 0 0 0 91.87499,-91.87499a91.87499,91.87499 0 0 0 -91.87499,-91.87499z" id="svg_4" fill="#ee4c2c"/>
  </g>
 </g>
</svg>