<svg width="1667" height="1285" xmlns="http://www.w3.org/2000/svg">
 <!-- Created with Method Draw - http://github.com/duopixel/Method-Draw/ -->

 <g>
  <title>background</title>
  <rect x="-1" y="-1" width="1669" height="1287" id="canvas_background" fill="#fff"/>
 </g>
 <g>
  <title>Layer 1</title>
  <g id="svg_5">
   <path d="m833.33327,1116.24992c-460.2083,0 -833.33327,-249.86109 -833.33327,-558.12496s373.12497,-558.12496 833.33327,-558.12496s833.33327,249.93054 833.33327,558.12496s-373.12497,558.12496 -833.33327,558.12496zm127.56943,-898.05549c-349.86108,0 -633.40273,170.83332 -633.40273,381.59719s283.54165,381.52775 633.33329,381.52775s608.05551,-116.80555 608.05551,-381.52775s-258.19442,-381.59719 -607.98606,-381.59719l-0.00001,0zm308.19442,646.24995a627.63884,627.63884 0 0 1 79.79166,30.06944a154.2361,154.2361 0 0 1 40.41666,28.88889a109.2361,109.2361 0 0 1 18.47222,26.59722l198.81943,335.13886l-321.31942,0.13889l-150.20832,-282.15276a363.12497,363.12497 0 0 0 -49.72222,-68.19444a52.29166,52.29166 0 0 0 -38.125,-17.36111l-76.31944,0l0,367.49997l-284.23609,0.06944l0,-938.5416l570.90273,0s259.99998,4.65278 259.99998,252.08331a265.41665,265.41665 0 0 1 -248.4722,265.76387l0.00001,0.00002zm-123.6111,-314.30553l-172.15276,-0.06944l0,159.58332l172.15276,0a78.74999,78.74999 0 0 0 79.72222,-81.24999a74.30555,74.30555 0 0 0 -79.72222,-78.26388l0,-0.00001z" id="svg_4" fill="#165caa"/>
  </g>
 </g>
</svg>