<svg width="1667" height="1658" xmlns="http://www.w3.org/2000/svg">
 <!-- Created with Method Draw - http://github.com/duopixel/Method-Draw/ -->

 <g>
  <title>background</title>
  <rect x="-1" y="-1" width="1669" height="1660" id="canvas_background" fill="#fff"/>
 </g>
 <g>
  <title>Layer 1</title>
  <g id="svg_5">
   <path d="m1607.66266,175.34374l-343.05553,-165.06943a103.74999,103.74999 0 0 0 -118.40277,20.13889l-656.94439,599.30551l-286.11109,-217.22221a69.37499,69.37499 0 0 0 -88.6111,3.95833l-91.80555,83.47222a69.44444,69.44444 0 0 0 -0.06944,102.70833l248.12498,226.38887l-248.12498,226.38887a69.44444,69.44444 0 0 0 0.06944,102.70833l91.87499,83.40277a69.37499,69.37499 0 0 0 88.6111,3.95833l286.11109,-217.22221l656.94439,599.30551a103.6111,103.6111 0 0 0 118.33332,20.13889l343.19442,-165.06943a104.16666,104.16666 0 0 0 58.88888,-93.88888l0,-1119.5138a104.16666,104.16666 0 0 0 -59.02777,-93.88888l0.00001,-0.00001zm-357.36108,1032.01381l-498.47218,-378.3333l498.47218,-378.3333l0,756.66661l0,-0.00001z" id="svg_4" fill="#0078d7"/>
  </g>
 </g>
</svg>