<svg width="1418" height="1667" xmlns="http://www.w3.org/2000/svg">
 <!-- Created with Method Draw - http://github.com/duopixel/Method-Draw/ -->

 <g>
  <title>background</title>
  <rect fill="#fff" id="canvas_background" height="1669" width="1420" y="-1" x="-1"/>
 </g>
 <g>
  <title>Layer 1</title>
  <g id="svg_5">
   <path fill="#066402" id="svg_4" d="m1138.73035,0.16675c-35.90278,0 -51.45833,22.56944 -64.375,45.83333c0,0 -517.70829,918.33326 -534.86107,948.40271c1.04167,1.66667 341.5972,626.59717 341.5972,626.59717c11.80555,21.38889 30.27778,45.83333 67.15277,45.83333l239.86109,0c14.65278,0 26.04166,-5.41667 32.15278,-15.27778c6.18056,-10.48611 6.18056,-24.02778 -0.625,-37.22222l-338.81942,-619.16662c-0.27778,-0.41667 -0.27778,-1.11111 0,-1.52778l532.29163,-940.97215c6.59722,-13.26389 6.73611,-26.875 0.41667,-37.15277c-6.18056,-9.93055 -17.43055,-15.34722 -31.875,-15.34722l-242.91665,0zm-1009.72215,329.16664c-14.65278,0 -26.73611,5.13889 -32.84722,15c-6.25,10.34722 -5.41667,23.54166 1.38889,36.875l162.49999,281.24998c0.27778,0.69444 0.27778,1.11111 0,1.45833l-255.20831,450.90274c-6.875,13.05555 -6.45833,26.45833 0,36.73611c5.90278,9.86111 16.59722,16.25 31.25,16.25l240.3472,0c35.97222,0 53.19444,-24.16666 65.62499,-46.31944l259.30554,-458.9583l-165.13888,-288.54164c-11.94444,-21.875 -30.13889,-45.76389 -66.80555,-45.76389l-240.41665,0l0,1.11111z"/>
  </g>
 </g>
</svg>